<svg id="Layer_1" data-name="Layer 1" xmlns="http://www.w3.org/2000/svg" viewBox="0 0 149.9 96.44"><defs><style>.cls-1{fill:none;stroke:#000;stroke-width:2px;}.cls-1,.cls-2{stroke-miterlimit:10;}.cls-2{stroke:#fff;stroke-width:0.8px;}</style></defs><path class="cls-1" d="M20.32,27.28v13.5a3.66,3.66,0,0,1-7.32,0V28c0-2.34-1.14-3.9-3-3.9H8.32V40.78a3.64,3.64,0,0,1-3.66,3.66A3.64,3.64,0,0,1,1,40.78V5A3.64,3.64,0,0,1,4.66,1.36,3.64,3.64,0,0,1,8.32,5V17.44H9.76c1.92,0,2.76-1,2.76-3.42V5a3.66,3.66,0,0,1,7.32,0V15.28c0,2.58-.66,4.38-2.34,5.64C19.6,22.12,20.32,24.4,20.32,27.28Z"/><path class="cls-1" d="M24.82,25.24a3.56,3.56,0,0,1,3.6-3.54h7.86a3.54,3.54,0,1,1,0,7.08H28.42A3.56,3.56,0,0,1,24.82,25.24Z"/><path class="cls-1" d="M76.24,11.8v29a3.66,3.66,0,0,1-7.32,0v-29c0-2.82-.84-4-2.46-4S64,9,64,11.8v29a3.66,3.66,0,1,1-7.32,0v-29c0-2.82-.84-4-2.46-4s-2.46,1.14-2.46,4v29a3.66,3.66,0,1,1-7.32,0v-29C44.44,4.66,47.86,1,54.1,1a7.89,7.89,0,0,1,6.24,2.4A7.89,7.89,0,0,1,66.58,1C72.82,1,76.24,4.66,76.24,11.8Z"/><path class="cls-1" d="M81.88,34.12V5A3.66,3.66,0,1,1,89.2,5V34c0,2.82.84,4,2.46,4s2.46-1.14,2.46-4V5a3.66,3.66,0,1,1,7.32,0v29.1c0,7.14-3.54,10.8-9.78,10.8S81.88,41.26,81.88,34.12Z"/><path class="cls-1" d="M105.52,34.48a16.37,16.37,0,0,1,.9-5.88c1-2.34,2.76-3.3,4.68-2.94a3.08,3.08,0,0,1,2.52,4.2,13.55,13.55,0,0,0-.9,4.74c0,2.7,1.26,3.78,2.82,3.78a2.42,2.42,0,0,0,2.4-1.68,13.84,13.84,0,0,0,.66-4.56,14.4,14.4,0,0,0-.6-4.32A10.58,10.58,0,0,0,114,23L112.3,21.7c-3.72-2.82-5.82-6.12-5.82-10.8,0-6.24,3.72-9.78,9.54-9.78,5.28,0,9,2.58,9,9.12V11a3.28,3.28,0,0,1-3.3,3.54A3.25,3.25,0,0,1,118.3,11v-.42c0-2.1-.78-3-2.16-3s-2.34,1.14-2.34,3.06c0,2.22.78,3.36,2.94,5l2.58,2a16,16,0,0,1,6.6,13.56c0,9.36-3.6,13.8-10.38,13.8C109.06,44.92,105.52,40.72,105.52,34.48Z"/><path class="cls-1" d="M130,34V11.92c0-7.14,3.36-10.8,9.6-10.8,6.66,0,9.18,3.84,9.18,9.42V12.4A3.44,3.44,0,0,1,145.3,16a3.4,3.4,0,0,1-3.48-3.6V12c0-2.82-.66-4-2-4-1.62,0-2.46,1.14-2.46,4V33.88c0,2.82.84,4,2.46,4,1.44,0,2-1.14,2-4v-.3a3.5,3.5,0,0,1,3.54-3.66,3.37,3.37,0,0,1,3.54,3.54v.9c0,6.42-2.94,10.44-9.06,10.44S130,41.14,130,34Z"/><path d="M121.25,50.71a22.5,22.5,0,1,0,22.5,22.5A22.5,22.5,0,0,0,121.25,50.71Zm0,28.93a6.43,6.43,0,1,1,6.43-6.43A6.44,6.44,0,0,1,121.25,79.64Z"/><path class="cls-2" d="M121.89,53.67a21,21,0,0,1,13.49,7"/><path class="cls-2" d="M122,56.1a20.52,20.52,0,0,1,8.4,4"/><path class="cls-1" d="M6.14,91.78V57.34c0-2.88,1.5-4.74,4.92-4.74H15.5c6.54,0,9.84,4.2,9.84,10.32V74c0,6.12-3.66,10.08-9.66,10.08H13.34v7.68a3.6,3.6,0,1,1-7.2,0Zm8.76-14c2.28,0,3.3-1.86,3.3-5.82V64.12c0-3.78-1.08-5.22-3.06-5.22h-1.8V77.8Z"/><path class="cls-1" d="M30.14,90.7V56a3.66,3.66,0,1,1,7.32,0V88.36H42.2a3.54,3.54,0,0,1,0,7.08H35.06C31.64,95.44,30.14,93.58,30.14,90.7Z"/><path class="cls-1" d="M66.2,56V71.08c0,5.58-2.1,9-5.94,10.26V91.78a3.66,3.66,0,1,1-7.32,0V81.34C49.1,80.08,47,76.66,47,71.08V56a3.66,3.66,0,0,1,7.32,0V71c0,2.82.78,4,2.28,4s2.28-1.14,2.28-4V56a3.66,3.66,0,0,1,7.32,0Z"/><path class="cls-1" d="M90.44,83.32v8.46a3.6,3.6,0,1,1-7.2,0v-7c0-4-1.2-5.58-3.54-5.58h-1V91.78a3.54,3.54,0,1,1-7.08,0V57.34c0-2.88,1.5-4.74,4.92-4.74h4.26c6.9,0,9.48,4.44,9.48,10.56V68c0,3.12-.78,6-3.18,7.92C89.72,77.32,90.44,80,90.44,83.32Zm-7.08-19.8c0-3.3-1.14-4.62-3.12-4.62h-1.5v14H80c2.28,0,3.36-1.74,3.36-5.76Z"/></svg>